<?xml version="1.0" standalone="no"?>
<!DOCTYPE svg PUBLIC "-//W3C//DTD SVG 20010904//EN"
 "http://www.w3.org/TR/2001/REC-SVG-20010904/DTD/svg10.dtd">
<svg version="1.0" xmlns="http://www.w3.org/2000/svg"
 width="1800.000000pt" height="1800.000000pt" viewBox="0 0 1800.000000 1800.000000"
 preserveAspectRatio="xMidYMid meet">

<g transform="translate(0.000000,1800.000000) scale(0.100000,-0.100000)"
fill="#303030" stroke="none">
<path d="M0 17001 l0 -999 34 -26 c53 -40 240 -141 335 -182 483 -203 911
-202 1213 3 197 133 334 338 442 664 111 334 123 661 35 932 -56 170 -169 373
-307 550 l-45 57 -853 0 -854 0 0 -999z"/>
<path d="M6400 17951 c0 -27 7 -84 16 -127 14 -64 15 -102 8 -204 -5 -69 -8
-201 -8 -295 1 -157 3 -179 32 -287 40 -155 106 -292 172 -362 94 -100 191
-137 519 -201 361 -70 560 -161 737 -339 158 -158 192 -303 137 -577 -10 -51
-17 -134 -17 -209 l-1 -126 38 -77 c97 -197 290 -349 553 -436 152 -51 228
-63 389 -64 165 -1 222 14 293 78 64 58 95 113 167 292 31 79 70 161 86 183
65 90 133 101 269 44 484 -202 789 -246 1098 -158 298 84 602 343 688 586 70
198 6 477 -178 772 -121 193 -272 376 -609 736 -269 288 -312 343 -339 429
-24 76 -26 196 -5 291 8 36 14 73 15 83 0 16 -103 17 -2030 17 l-2030 0 0 -49z"/>
<path d="M15092 17958 c-42 -61 -77 -134 -104 -214 -33 -100 -31 -254 6 -377
44 -146 87 -227 158 -293 166 -153 438 -212 860 -184 113 7 257 10 320 7 273
-15 587 -109 860 -257 219 -120 333 -206 549 -416 91 -88 186 -175 212 -193
l47 -32 0 1001 0 1000 -1440 0 -1439 0 -29 -42z"/>
<path d="M12650 15144 c-150 -17 -344 -78 -430 -136 -111 -74 -215 -223 -277
-398 -74 -206 -100 -382 -113 -760 -15 -453 -75 -699 -265 -1085 -189 -385
-469 -733 -795 -990 -200 -158 -361 -338 -503 -563 -182 -288 -294 -566 -353
-877 -21 -109 -24 -369 -6 -465 33 -166 96 -322 184 -454 64 -96 239 -263 353
-338 283 -186 666 -332 978 -373 351 -45 664 11 1013 185 216 107 364 203 819
530 259 186 384 269 475 315 194 98 471 182 745 225 452 73 570 96 715 142
371 117 583 347 708 768 107 359 151 686 132 975 -11 162 -22 226 -62 370 -89
318 -275 604 -553 846 -181 157 -307 248 -580 419 -289 180 -427 271 -523 342
-155 114 -314 283 -577 613 -137 172 -284 345 -345 405 -150 150 -301 244
-451 284 -59 15 -229 27 -289 20z"/>
<path d="M4687 14630 c-104 -27 -190 -99 -223 -189 -10 -28 -18 -91 -21 -162
-5 -101 -2 -125 16 -181 40 -121 102 -190 281 -313 170 -117 205 -156 305
-340 48 -87 117 -157 171 -173 62 -18 190 -15 276 7 218 56 315 172 378 448
35 157 58 221 110 304 78 124 120 219 120 271 0 57 -33 128 -80 173 -29 28
-37 30 -118 33 -75 3 -101 -1 -187 -28 -55 -17 -131 -33 -170 -37 -130 -11
-288 30 -425 108 -39 23 -98 50 -133 61 -71 22 -242 32 -300 18z"/>
<path d="M307 13769 c-81 -9 -193 -42 -259 -75 l-48 -24 0 -638 c0 -615 1
-640 20 -695 81 -229 86 -477 15 -623 l-35 -72 0 -787 0 -786 47 7 c138 20
353 106 484 194 139 94 248 196 410 385 106 123 185 198 266 253 140 95 338
174 568 227 379 88 507 127 633 195 187 101 312 238 413 454 102 218 94 362
-26 482 -97 98 -166 127 -725 309 -237 77 -325 120 -404 198 -77 75 -103 125
-173 331 -61 180 -102 256 -183 338 -149 149 -464 285 -750 323 -114 16 -150
16 -253 4z"/>
<path d="M17917 13611 c-165 -131 -255 -324 -245 -525 6 -119 31 -180 118
-298 69 -91 140 -218 186 -328 l23 -55 1 633 c0 347 -2 632 -4 632 -3 0 -38
-27 -79 -59z"/>
<path d="M17989 11639 c-13 -30 -113 -88 -179 -104 -36 -8 -87 -20 -115 -26
-188 -44 -447 -222 -601 -413 -199 -248 -260 -475 -174 -653 59 -121 204 -216
455 -297 185 -61 290 -79 462 -80 83 -1 154 2 157 5 3 3 5 361 4 795 -2 434
-6 782 -9 773z"/>
<path d="M5020 10850 c-216 -46 -349 -120 -844 -463 -262 -181 -415 -257 -536
-265 -36 -2 -124 3 -196 12 -590 72 -947 -20 -1044 -269 -35 -89 -40 -253 -11
-366 57 -223 235 -490 781 -1169 99 -124 192 -244 206 -268 75 -127 103 -325
70 -490 -48 -239 -190 -507 -401 -757 -178 -211 -244 -394 -232 -644 13 -277
138 -536 377 -784 215 -224 513 -430 740 -512 60 -22 99 -28 190 -32 134 -6
201 7 307 61 190 95 333 250 642 693 339 488 515 618 806 599 161 -10 317 -60
615 -196 381 -173 544 -223 735 -223 220 1 384 80 573 277 184 193 293 395
349 648 14 65 18 124 17 273 0 167 -3 206 -27 320 -53 248 -154 511 -326 848
-107 207 -138 293 -147 403 -12 158 31 274 202 539 120 187 197 343 231 471
22 84 26 121 27 249 1 164 -16 251 -70 358 -63 124 -176 248 -302 331 -147 97
-371 177 -575 205 -112 16 -315 14 -443 -4 -127 -18 -402 -21 -519 -5 -140 19
-316 50 -455 81 -201 44 -537 99 -600 98 -30 0 -93 -9 -140 -19z"/>
<path d="M16577 8105 c-134 -34 -219 -99 -275 -212 -36 -72 -82 -235 -117
-413 -49 -246 -148 -503 -226 -586 -30 -32 -125 -79 -189 -95 -59 -14 -210
-16 -580 -9 -193 3 -236 1 -300 -14 -262 -64 -363 -235 -347 -586 20 -427 191
-786 509 -1068 78 -69 239 -191 378 -287 212 -146 298 -220 360 -310 19 -28
89 -157 156 -288 177 -343 270 -473 423 -586 155 -115 303 -161 543 -168 260
-8 407 17 557 97 137 73 236 180 426 458 l105 153 0 1719 0 1719 -182 -6
c-199 -6 -311 7 -398 45 -74 32 -162 106 -256 213 -94 107 -179 178 -254 213
-58 26 -245 33 -333 11z"/>
<path d="M18 7633 c-17 -4 -18 -95 -18 -1719 0 -943 2 -1714 4 -1714 2 0 35
42 74 93 175 230 327 332 671 451 160 56 259 106 323 165 100 92 147 224 148
413 0 241 -55 354 -328 678 -207 245 -282 399 -282 580 0 110 18 196 75 366
53 158 70 256 55 332 -15 78 -37 118 -109 194 -74 79 -166 129 -278 153 -63
14 -293 19 -335 8z"/>
<path d="M10937 6051 c-333 -73 -562 -353 -544 -666 6 -115 31 -182 108 -286
123 -165 212 -352 266 -559 18 -71 26 -131 30 -236 6 -154 -3 -215 -43 -296
-54 -108 -127 -157 -281 -189 -112 -24 -180 -49 -275 -102 -258 -144 -492
-410 -572 -648 -56 -171 -11 -358 112 -456 126 -101 419 -208 671 -244 124
-18 322 -6 450 26 293 72 528 237 803 560 246 290 420 382 958 509 129 30 276
69 325 86 296 104 468 259 596 537 74 159 88 297 39 393 -62 124 -198 199
-590 326 -457 148 -506 169 -606 269 -85 84 -100 111 -165 308 -28 83 -65 178
-82 210 -38 73 -131 175 -212 233 -115 81 -356 181 -535 220 -119 26 -346 28
-453 5z"/>
<path d="M5070 3220 c-304 -79 -544 -330 -793 -830 -96 -193 -107 -210 -178
-281 -81 -82 -169 -139 -372 -240 -243 -122 -353 -201 -400 -288 -39 -71 -44
-130 -18 -230 50 -199 183 -328 387 -377 91 -22 288 -22 414 1 52 9 154 32
225 50 165 43 299 61 550 75 348 19 572 53 822 124 196 57 313 126 440 259
164 175 246 383 245 627 0 260 -96 485 -292 681 -349 350 -726 507 -1030 429z"/>
<path d="M17415 2350 c-243 -25 -460 -102 -655 -233 -91 -61 -265 -233 -344
-339 -91 -124 -187 -290 -328 -566 -235 -461 -263 -499 -621 -852 -142 -140
-279 -279 -304 -307 l-45 -53 1441 0 1441 0 0 1159 0 1159 -27 6 c-123 26
-418 40 -558 26z"/>
<path d="M0 1160 l0 -1160 851 0 c516 0 849 4 847 9 -1 5 -66 82 -143 172
-365 422 -395 461 -474 609 -74 140 -112 251 -202 584 -119 443 -171 558 -314
701 -125 124 -281 195 -527 239 l-38 7 0 -1161z"/>
<path d="M7475 1281 c-153 -44 -295 -160 -433 -351 -97 -135 -154 -194 -334
-347 -113 -95 -159 -141 -196 -196 -57 -87 -102 -214 -109 -314 l-6 -73 2035
0 2035 0 18 88 c50 244 0 384 -186 522 -154 114 -324 179 -526 201 -125 13
-246 7 -488 -24 -244 -31 -525 -31 -645 2 -124 33 -207 76 -385 202 -301 211
-395 265 -502 293 -79 21 -202 19 -278 -3z"/>
</g>
</svg>
