<svg version="1.0" xmlns="http://www.w3.org/2000/svg" width="1973.333" height="1973.333" viewBox="0 0 1480 1480" style="background-color:transparent"><path d="M46 9.4c0 20.9 7.7 43.3 19.3 56.3C77.2 79 80 87 85.6 122.8c4.9 31.3 8.9 42.6 18.5 52.4 7.4 7.4 14.4 9.8 31.5 10.5 44.4 2 116.8-21.3 145.7-46.8 14.3-12.5 30.9-47.7 36.8-78 4.2-21 2.5-44-4.1-56.8L312 0H46zm767-5.2c0 9.4 2.3 27.6 4.6 36.7 7.7 30.4 27.1 49.6 55.9 55.2 5 1 15.7 1.4 37.5 1.4 25.7 0 31.7-.3 38-1.8 26.8-6.3 51.1-29.9 58.1-56.4 2.2-8.4 3-25.8 1.6-34.6l-.8-4.7H813zm475.9-1c-.8 2-1.4 6.9-1.4 12.3 0 8.1.3 9.7 3.2 15.8 5.4 11.4 14.1 21.1 26.3 29.4 8.2 5.5 14.7 8.3 19.5 8.3 14.4 0 50.4-11.4 98.7-31.2 27.6-11.3 30.8-14.4 30.8-29.7V0h-175.8zM412.5 8.3c-10.1 3.4-23.1 12-29.2 19.4-8.5 10.3-12.7 19.4-19.7 43.6-3.4 11.5-6.9 20.7-13.2 34-15.7 33.1-20.9 48.6-22 65.2s4.3 31.9 18 51.3c15.4 21.8 42.2 42.7 64.7 50.3 8.4 2.9 10.9 3.3 23.4 3.7 17.6.5 30.2-1.5 61.9-9.8 37.2-9.8 44.5-11.1 72.1-12 38-1.4 40.9-2.3 107.5-35.3 40.5-20.1 52.2-27.1 62.8-37.5 8-7.9 11.1-13.2 15.3-25.7 9-27.4 10.4-57.4 3.8-84-3.2-12.9-8.8-27.9-11.9-31.7-9.4-11.4-35.4-16.7-76.5-15.5-30.6.9-61 4-113.9 11.7-42.8 6.2-57.8 3.8-96.1-15-9.9-4.9-20.5-9.8-23.5-11-6.8-2.7-18-3.5-23.5-1.7M1135 40.7c-21.5 1.1-42.5 4.7-55.4 9.4-24.4 8.9-44.1 32.2-53.3 62.9-3.1 10.3-4.3 31-2.3 40.3 1.9 9.5 7.4 19.2 13.3 23.7 7.7 5.7 20 11.3 36.5 16.5 49.2 15.5 62.7 21.8 74.2 34.1 9.1 9.7 10.8 14.4 14.5 39.7 3.9 26.8 6.2 33.5 13.4 40 8.9 8 16.3 6.7 48.3-8.6 28.7-13.8 43.6-23.3 55.9-35.7 6.7-6.7 9.5-10.4 12.2-16.1 8.4-17.7 7.4-32-4.9-64.4-8.4-22.2-8.7-24.3-7.9-56.5.6-23.3.5-28.5-.9-34.3-4.2-18.1-15.5-30.4-34.7-38-23.5-9.4-71.1-15.1-108.9-13m300.8 21.8c-2 .7-8.5 4.7-14.5 8.7-5.9 4.1-13.5 8.5-16.8 9.8-18.1 7.1-45.7 23.2-57.2 33.5-19.1 16.9-16.6 55.2 5 79.1 6.1 6.7 14.7 12.4 31.3 20.7 25.7 12.9 39.9 22 47.8 30.7 9 9.9 12.3 18.1 15.6 38 2.5 15 5.5 22 11 25.6 4.2 2.8 12.4 4.1 18.4 3l3.6-.7V68.1l-5.7-2.1c-13.2-4.9-30.3-6.5-38.5-3.5M0 190.1v121.1l3.3-.7c6.6-1.4 18.4-5.7 23.7-8.8 8.8-4.9 19.4-16.2 23.5-24.9 8.8-18.4 8.3-41.1-1.3-65-1.7-4-7.1-15.9-12.1-26.4C24.6 158.9 23 153.9 23 140.3c0-5.9.5-14.2 1.1-18.3 2.7-21.1.8-33.6-6.3-41.4C14 76.5 3 69 .8 69 .4 69 0 123.5 0 190.1M894.4 142c-41.6 5.3-74.2 39.9-87.3 93-5.4 22.2-7.6 46.3-6.1 67.1 1.7 22.7 5.9 33.9 16.4 44.5 11 11 23.3 15.1 42.9 14.2 22-1 43.4-11.1 59.4-28 7.6-8.1 11.4-14.7 19.6-34 19.9-46.6 30.4-84.1 31.4-112.4.9-23.5-1.2-28.1-15.7-34.7-16.4-7.5-43.6-11.8-60.6-9.7m-703.9 62c-14.8 2.6-30.1 6.8-35.9 9.7-16.6 8.4-34.6 29.9-48.6 58.1-12.1 24.5-17.9 44.1-18.7 63.3-.7 17.3.7 22.3 8.7 30.1 24 23.4 91.8 49.5 144.1 55.3 10 1.1 17.4 5.4 48.8 28.3 19.5 14.3 29.1 19.4 37.3 20 7.2.5 11.4-1.7 21.2-11.5 26.2-26.1 35.8-63.2 26.6-102.8-8.6-36.7-33.1-68.8-68.9-90.1-10.7-6.3-16.3-11.4-28-25.3-10.2-12.1-19.9-22-24.7-25.3-16.4-11.1-36.8-14.3-61.9-9.8m871.7 41.1c-11.5 1.4-20.3 4.4-26.9 9.3-11.1 8.2-23.8 22.9-38.5 44.6-16.3 23.9-21.8 39-21.8 59.6 0 24.7 9.6 46.5 29.5 67.3 12.9 13.4 25.4 20.8 44 25.8 9.1 2.4 11.7 2.7 28 2.7 13.4 0 20.3-.4 27-1.7 41.3-8.2 70.6-25.3 81.5-47.4 2.8-5.6 3.5-8.3 3.8-14.9 1-19.4-7.8-31.6-34.4-47.7-19-11.4-24.3-19.5-27.9-41.9-3-18.9-4.5-25-7.6-31.4-8.9-18.1-30.8-27.5-56.7-24.3m-352.7 13.8c-23.4 6.2-47 21.8-55.5 36.6-1.7 2.9-5.1 11.7-7.6 19.5-7.5 23.3-11.5 30.8-23.8 45.5-15.2 18.1-32.1 47-37.4 64.2-8.7 28-3.3 42.5 20.2 53.8 10.5 5 18.4 6.9 35.1 8.5 19.4 1.8 20.7 2.3 40.6 14.1 21.7 13 27.4 15.2 38.4 15.3 8.2.1 9.5-.2 14.3-2.8 18.7-10.4 48.7-60.4 55.9-93.1 1.9-9 2-23.6.1-29.6-2-6.2-17.7-33.7-24.5-42.7-3-4.1-6.1-8.8-6.8-10.5-2.1-5.1-3.4-16.8-4.4-38.7-.5-11.4-1.5-22.1-2.2-24-3-8.5-9.4-14.6-17.5-16.9-5.8-1.6-17-1.2-24.9.8m610.5 44.2c-12 1.3-27.8 5.3-36.3 9.2-12.7 5.9-31.1 22.6-38.6 35.1-7.3 12.2-11.9 29.1-10.7 39.8 1.7 16.7 15.8 29.5 41.6 37.6 9.3 2.9 13.7 3.8 48 10.2 9.1 1.7 22.6 4.3 30 5.9 30 6.4 39 7.5 61.5 7.5 19.9.1 21.3 0 27-2.3 4.1-1.7 7.8-4.2 11.6-8 7.6-7.7 9.4-12.9 9.4-28.1 0-11.2-.1-11.7-3.5-18-2.4-4.6-6.8-9.8-15.2-18.2-14.2-14.2-18-18.8-29.6-36-12.8-18.7-16.9-23.1-25.5-27.2-15.9-7.5-42.2-10.3-69.7-7.5m-798 8.8c-3 1-11.2 4.3-18.3 7.4-9.2 4.2-18.2 7.1-32.5 10.8-24.6 6.3-30.7 9.1-36.8 16.7-12.2 15.3-19.1 38.1-18.2 59.8.4 9 .9 11.9 3.1 16.6 10.8 23.7 33.3 41.5 57.9 45.9 12.7 2.3 26.1-2.6 37.1-13.5 7.5-7.3 11.9-13.7 21.4-30.6 3.9-6.9 11.4-19.7 16.8-28.5 29.2-48.3 31.3-69.9 7.9-81-11.6-5.5-27.8-7-38.4-3.6m352 81.2c-12.3 1.8-25.4 8.7-31.3 16.5-10.9 14.3-22.7 48.2-27.2 77.9-1.9 12.8-1.9 32.1 0 42.1 3.7 19.6 14.9 32.4 38.4 43.8 5.1 2.5 21.1 8.4 35.5 13.1 31 10.2 45 16.8 62.4 29.2 6.7 4.8 19.7 14.2 28.9 20.8 20 14.4 31.4 21.5 40.9 25.5 28.1 11.7 47.8 2 64-31.5 11.8-24.3 21.2-63.4 24.4-101.2 1.5-18.7-.5-26.1-8.7-31.3-7.7-4.9-11.8-5.4-49.8-5.6-38.9-.2-42.8-.7-55.9-6.8-11-5-19.1-10.9-29.1-21-8.7-8.7-9.5-9.9-18.8-28.1-5.3-10.5-11.4-21.2-13.5-23.9-4.3-5.8-12.5-11.6-20.1-14.6-9.9-3.8-30.7-6.4-40.1-4.9M122 435c-33.2 2.7-55.5 12.1-73.8 31.5-13.9 14.6-19.2 24.6-30.1 57.1-12.5 37.3-15.1 51-11.4 59.5 6.3 14.2 32.6 27.7 61.8 31.9 16.2 2.3 25.3.9 63-9.5 35-9.7 38.8-10.4 59-11.5 17.5-.9 26.1-2.1 47.4-6.7 14.6-3.1 19.4-5.8 30.8-17.5 8.3-8.4 12.4-13.5 16.1-19.8 3.8-6.3 3.8-16.8.1-25.7-9.6-22.8-43.5-53.5-81-73.2-25-13.1-52.2-18.5-81.9-16.1m1151 51.1c-23.4 1.1-40.6 5.5-65.8 16.8-26.4 12-48.9 26.3-58.7 37.3-8.4 9.6-12.4 20.2-16.9 44.8-5.2 28.5-5.7 48.9-1.5 62.8 1.8 5.9 2.9 7.5 9.3 13.7 8.8 8.5 18.7 14.3 32.7 18.9 17.9 6 31 7.8 56.4 7.9 21.7 0 31.9-.7 60.7-4.3 12.7-1.6 15.6-2.3 21-5.2 8.5-4.4 25.8-21.7 42.3-42.3 7.1-8.8 17.6-20.8 23.4-26.6 10.3-10.4 10.9-10.8 25.1-17.7 16-7.8 22.9-13.3 30.1-24.5 6.3-9.7 8.4-17.4 8.3-30.2 0-13.4-2.3-20.4-9.1-27.6-18-19.3-74.3-27.8-157.3-23.8m-678.8 17.4c-3.5.8-12.5 3.9-20 7-20.4 8.4-31.5 12.3-36.9 13-6 .8-41.9-3.7-52-6.6-3.9-1.1-12-4-18-6.5-13.7-5.8-21.1-7.4-34.8-7.4-13.6 0-22 2.1-36 9-13.2 6.6-26.8 16.4-38.1 27.5-15.6 15.4-20.8 25.5-20.9 41 0 8.1.3 9.5 3 14.4 11.7 21.2 43.7 26.6 134.5 22.6 44.5-1.9 77.6-1.6 97 .9 37.5 5 56.5 2.2 64.9-9.5 2.2-3 4-8.4 7.7-23.2 4.1-16.4 4.8-21 5.2-31.7.5-14.9-1-22.3-6.2-30.4-5.7-9-14.1-14.6-27.1-18.4-9.8-2.9-15-3.3-22.3-1.7m122.6 67.3c-13.7 5-21.4 15.9-28.9 41.1-2.1 7.1-2.1 7.5-.5 13.4 3.5 12.4 15.1 26 27.1 31.6 16.8 7.9 48.5 10.5 62.6 5.2 7.5-2.9 20.1-15.7 24.7-25.2 5.8-12 7.4-26.7 3.7-34-2.8-5.3-12.1-11.6-23.5-15.9-1.9-.7-9.6-4.1-17-7.6-7.4-3.4-16.9-7.2-21-8.3-9.2-2.6-20.6-2.7-27.2-.3m723.7 57.3c-10.1 1.8-24.8 10.8-32.9 20.1s-13.4 21.5-21.1 48.8c-1.5 5.3-7.1 18.9-12.5 30.5-12.7 27.3-14.5 31.8-18.1 45.3-3.2 12.4-3.9 26.2-1.8 36.4 1.6 8.1 10.2 24.3 18.9 35.9 11.6 15.6 24.9 27.4 43 38.3 22.2 13.5 38.2 14 56.8 1.9l7.2-4.7V639.3l-8.7-4.1c-14.1-6.6-22.7-8.6-30.8-7.1m-1275.5 3c-2.5.6-12.4 4.7-22 9.1s-22.1 9.6-27.8 11.4c-14.1 4.6-35.1 8.4-46.6 8.4-18 0-38.1-5.2-57.5-14.9C5.6 642.3.8 640 .5 640S0 694 0 760c0 114.1.1 120 1.7 119.1 1-.6 7.6-6.2 14.8-12.6 24-21.4 36.4-29.7 56.3-37.5 20.4-7.9 35.6-16.4 81.5-45.7 15.9-10.1 34.3-21.5 41-25.3 6.7-3.7 14.8-8.3 17.9-10.1 12.4-7 22.3-18.5 26-30.3 2.5-7.8 2-21.3-1.1-30.1-6.9-19.4-27.4-41.3-48.6-52-9.9-5-16.6-6.2-24.5-4.4m157.5 17.7c-8 2.8-13.9 6.7-19.9 13.3-9.9 11-21.2 36.6-20.3 46.1.9 10.2 11.7 25.7 22.7 32.8 6.5 4.2 17.1 7.5 30.2 9.4 18.6 2.8 33.3 1.4 42.4-3.9 7.8-4.6 21.8-22.1 28-35 3.6-7.5 6.4-17.1 6.4-21.8 0-9.1-6-17.1-16.6-21.9-27.5-12.7-38.9-17.4-45.9-19.3-7.9-2-20.7-1.9-27 .3m566.5 2.8c-1.4.2-5.9.9-10 1.5-12.5 1.9-23.9 6.3-48.8 18.8-25 12.7-35 18.7-41.9 25.4-5.9 5.7-7.3 9.1-7.3 17.9 0 14.1 6.3 31.5 17.5 48.3 12.8 19.3 20.5 25.4 59 46.8 24.4 13.6 32.9 19.3 45.4 30.6 5.8 5.3 13.3 11.7 16.6 14.2 10.4 8 32 21.8 36.6 23.5 9.6 3.4 36.7 2.7 48.2-1.2 6.2-2.1 13.8-10.4 16.7-18.2 4-10.6 5.3-19.7 5.3-38.2.1-19.5-1.5-32.6-6.4-53-8.5-35.8-18-53.3-41.8-77-24.1-24-45.7-36-70.1-39-8.3-1-14-1.1-19-.4M532 660c-23 2.2-41.6 6.6-53.1 12.6-27.4 14.4-47.1 49.6-42.9 76.7 2.9 19.1 10.1 26 48 45.8 26 13.6 36.1 20 44.7 28.4 11.1 11 13.9 19.2 10.9 32.3-8.2 35.9 0 68.3 22.1 88.2 7.1 6.3 21.4 13.6 30.8 15.5 14.6 3.1 25.7 1.4 44.6-6.5 53.1-22.3 79.7-45.5 81.6-71.2.4-6.2 0-9.7-3.2-22.8-13.5-57.1-14.4-62.8-15.5-97.5-1-31.5-2-39.6-6.8-53.5-5-14.3-13-25.5-23.2-32-9.2-5.9-26.5-10.5-53.3-14.1-17.3-2.3-68-3.4-84.7-1.9m556.5 55.6c-12.2 1.5-19.1 4.2-25.6 10.1-7.8 7-10.2 16-7.4 27.7 2.3 10.2 7.6 19.3 17.4 29.9 10.2 11.2 15.1 20 21.1 37.7 6.2 18.3 10.9 27.7 17.3 34.2 11 11.1 21.4 14.8 42.2 14.8 42.4 0 105-19.7 135.2-42.4 7.6-5.7 19.1-18.6 24.3-27.2 2.8-4.7 3.5-6.9 3.8-12.5.4-5.9 0-7.6-2.5-13.1-6.1-12.9-23.5-31.7-33.5-36.3-15.1-6.9-34.3-9.4-82.3-10.5-20.3-.5-39-1.4-41.5-1.9s-10.6-2.3-18-4c-23.2-5.1-41.9-7.5-50.5-6.5m-784 64.9c-16 2.9-33 8.8-46.5 16.3-3.6 1.9-15.5 8.9-26.4 15.5-11 6.6-34.4 19.4-51.9 28.4-35.8 18.2-48.5 26.2-57.4 35.6-7.8 8.4-10.5 14-11.1 23.2-.4 6.2-.1 8.1 2 12.6 9.3 20.1 50.7 50.7 83 61.3 17.4 5.7 34 5.9 61.3.6 31.8-6 48.3-6.2 108-1 30.4 2.7 60.8 3.6 70.5 2.1 18.4-2.8 28.9-13 36.4-35.2 7.6-22.8 7.7-55.4.2-77.5-5.1-15-13.5-28-23.4-35.9-11.5-9.3-53-28.3-82.9-38.1-27.5-9-44.3-11.1-61.8-7.9M805 874.6c-13.9 3.7-21.9 12.9-43 48.9-24 41.2-30.6 48.5-70.5 79-9.4 7.1-21.8 17.7-27.6 23.5-9 8.9-11.2 11.8-14.7 19-9.3 18.9-6.9 37.9 8 63.2 12.1 20.4 23.2 28.2 54.1 37.9 8.9 2.7 29.9 9.5 46.7 15 50.9 16.8 71.2 21.2 99 21.3 17.4.1 22.9-.7 36.2-5 16.1-5.3 30.5-17.8 39-34 2.5-4.9 9.6-20.6 15.6-34.9 14.3-33.9 17.7-41.1 24.7-52.5 10.5-17.2 13.8-29.3 13.8-50.5.1-28.7-6.8-44.3-28.7-65.3-30.7-29.3-85-58.9-120.5-65.6-10.3-2-24.8-2-32.1 0m266 9.5c-6.8 2.7-13.2 12.8-18.5 28.9-1.5 4.7-4.9 13.9-7.6 20.5-9.7 24.3-12.8 41.9-10 55.7 2.7 12.8 12.3 25.3 24 31.3 11 5.5 23.4 9.7 27.4 9.2 9.6-1.3 22.7-11.5 30.8-23.9 8.3-12.9 12.4-32.8 12.4-60.3 0-17.3-.2-19.6-2.3-25.4-5.9-16.3-22.1-31.2-38.7-35.6-6.7-1.7-13.8-1.9-17.5-.4m193.5 5c-27.7 3.7-47.3 18-69 50.4-26 39-39.4 80.5-33 102.3 2.9 9.5 13.5 18.1 44 35.7 31.2 17.9 47.3 30.4 58.5 45.3 4.7 6.4 14.5 25 26.5 50.6 12.4 26.6 25.3 44 37.2 50.3 16.7 8.9 36.5 5 61-11.9 13.3-9.2 20.3-21.1 29.3-49.9 2.8-9 9.6-30 15-46.6 16.6-50.3 21.7-75.4 20.7-102.8-.8-22.9-6.3-39.6-17.2-52.4-10.4-12.1-18.6-16.8-58.5-33.6-29.5-12.4-43.2-18.9-52.1-24.7-16-10.4-41.3-15.6-62.4-12.7M66.9 958.8c-22.1 7.4-31.8 29.1-34.4 77.2-2.1 39.3-3.6 52.5-7.7 65-3.5 10.6-11.3 29-18.3 42.9L0 1157v147.7l7.8 1.7c20.6 4.4 47.3 5.9 62.2 3.6 23.9-3.8 43.6-17.2 53.8-36.7 8.6-16.4 12.5-31.9 16.2-64.3 3.9-34.8 6.5-40.6 30.6-69.6 21.1-25.4 31.4-42.6 35.5-59.3 3-11.8 2.3-29.1-1.4-40.6-8-24.4-27.8-43.7-62.2-60.5-15.6-7.6-28.3-12.6-45.5-17.7-14.7-4.3-22.6-4.9-30.1-2.5M492 991.5c-15.3 3-28.3 10-38.2 20.4-6.6 6.9-9.7 8.1-20.8 8.1-9.7 0-20.8-2.5-46-10.4-29.3-9.2-37.2-11.4-48.5-13.2-11.4-1.8-20.7-1.3-27 1.5-21.7 9.8-48.6 74.6-46.2 111.7.9 14.8 6.4 22.7 20.2 28.9 14.2 6.5 26.9 8.2 68.1 9.4 34.3 1 31.8.4 68.4 17.1 40 18.3 51.3 21.9 71.5 22.7s29.5-2.3 48-16c25.3-18.7 39.7-39.2 45.2-64.7 2.6-12.2 2.6-49.3-.1-59.5-4-15.5-12.5-28.1-25.1-37.1-8-5.7-33.3-17.8-40.3-19.3-6.9-1.4-20.9-1.3-29.2.4m584 77.2c-14 2.5-31.1 7.1-36.7 9.9-16.2 8.2-34.1 29.8-48.2 58-11.9 23.8-17.9 44.4-18.8 64-.7 14.9.7 20.6 6.8 27.9 5.4 6.5 9.7 15.7 14.9 32.5 16.6 53.2 19.9 61.2 30.1 72.4 11.4 12.5 19.4 14.5 56.4 14.6 46.3 0 101.1-4.4 124.5-10.2 12.8-3.1 17.3-5.8 28.5-17.2 19.9-20.2 28.8-42.3 28.8-72.1.1-16.5-1.7-26.8-7.2-42.4-10.9-31.1-35.1-59.9-63.8-76.2-10.4-5.9-17.1-11.9-30.7-28-18.3-21.4-29.4-29.5-45.7-33.4-8.2-1.9-27.6-1.8-38.9.2m399.6 95.8c-5.3 9.5-19.2 30.1-27.5 40.8-12.1 15.6-19.1 33.2-19.1 48.3 0 22.4 14.3 38.4 43.3 48.5 3.6 1.3 6.8 2.1 7.1 1.8.4-.3.5-33.4.4-73.5l-.3-72.9zM249 1176.4c-11.4 3.2-23.5 11.1-36.1 23.6-11 10.9-18.1 21-25 35.4-6.4 13.5-9.1 24.3-9.7 38.6-.5 13.6 1.1 21.7 6 29.3 3.9 6.2 10.1 10.7 25.8 19.2 16.7 9 26 15.5 34.6 24 12.6 12.4 16 22.4 15 43.5-.5 11.8-.4 13.9 1.1 16.9 2.8 5.4 8 8.8 16.8 11.2 7 1.9 11.6 2.2 36.6 2.6 38.8.7 56-1.4 75.9-9.3 31.3-12.6 48.2-41.7 53.1-91.4 3.2-34-4.1-60.3-24.3-87.8-6.3-8.5-21.5-23.9-28.1-28.4-17.7-12-54.6-22.7-94.2-27.3-15.6-1.8-41.2-1.8-47.5-.1m358 13.3c-13.3.6-34.3 3.4-44.2 5.9-5.7 1.4-14.4 4.5-19.4 6.9-28 13.5-49.4 50.5-49.4 85.6 0 15.6 4.2 27.9 12.1 35.7 6.7 6.7 22.9 14 47.7 21.7 40.7 12.6 53.8 18.9 65.8 31.7 8.8 9.3 10.5 13.9 13.9 37.5 2.8 19.9 4.7 27.7 8 34.2 5.9 11.6 14.9 14.7 28.8 10 8.9-3 37.6-17.7 48.2-24.7 18.2-12.1 29.8-25.6 34.5-40.2 3.2-10 3.2-23.1-.1-39.5-2.2-11.2-2.4-14.1-2.3-45 0-18.2.2-39.5.4-47.5.7-23-2.9-34.2-14.9-46-15.2-15-43.7-22.9-93.6-26-16.3-.9-21.2-1-35.5-.3m244.5 59.4c-12.6 1.2-28.8 4.5-36.5 7.6-9.1 3.6-14.2 7.4-18 13.2-5.6 8.8-7.2 14.5-7.8 26.7-.7 16.9.5 21.8 18.2 72.9 9.7 28.1 11.1 40.2 8.1 69.5-.8 8-1.7 20.5-2.1 27.8l-.7 13.2H1008l-.6-2.8c-5.9-25.3-8.9-34.4-19.6-60.2-7.7-18.5-13.3-34.8-15.3-45-.9-4.4-1.9-18.8-2.5-35-1.2-30.8-2.7-42.7-6.9-53.6-6.1-15.6-14.5-24.9-25.7-28.4-19.5-6-57-8.6-85.9-5.9m497.7 21c-21.2 2.7-42.1 13-56.9 27.8-11.1 11.2-30.7 43.8-35.2 58.5-6.8 22.2-2.6 32.8 20 51.2 14.5 11.8 18.7 16.5 22.6 25 2.2 4.8 2.7 7.3 2.6 13.4 0 8.5-2.1 15-8.5 26.8l-4 7.2h176.3l-.7-3.7c-.4-2.1-.8-8.5-.8-14.3 0-9.7.3-11.4 4.2-22.5 5.9-17.1 7.5-26.9 7.5-46 0-27.6-5-43.9-17.2-56.2-3.3-3.3-12.2-10.8-19.8-16.6-7.6-5.9-19.4-15.6-26.1-21.7-21.4-19-32.1-25.8-45.1-28.6-7.2-1.5-9.5-1.5-18.9-.3m-1222 65c-19 2.4-35.1 11.9-46.9 27.7-17.4 23.1-27 54.9-33.7 111.9l-.7 5.3H179c106.2 0 133-.3 132.4-1.3-2.8-4.9-9.4-12.1-13.5-14.7-7.3-4.7-12.4-5.9-33.4-7.5-28.7-2.1-33.4-4.5-40.8-20.5-7.5-16.3-8.7-20.3-10.7-38.6-1.5-13-2.6-18.7-4.4-22.6-9.2-20.6-33.3-36.5-60.1-39.7-10-1.2-12.2-1.2-21.3 0m371.6 37.9c-15.6 2.5-22.8 5.5-32.8 13.5-11.5 9.2-18.6 20.4-21 33.2-2.9 14.6 2.7 24 18.6 31.4 5.8 2.7 17.5 6 25.9 7.3 2.2.4 15.3 2.9 29 5.6 36.8 7.3 50.5 8.5 62 5.5 11.9-3.1 17.9-11.3 18-24.5 0-10-2.1-13.8-14.4-26.5-5.4-5.5-13-14.8-17-20.8-10.8-16-14.1-19-24.2-22.2-7.2-2.3-10.5-2.7-23.4-3-8.2-.2-17.6 0-20.7.5m634.2 10c-15.3 1.4-23.2 5.3-35.2 17.2-10.3 10.4-17.2 27.2-15.3 37.7 1.7 9.8 8.8 14.9 31.7 23.1 9 3.3 20.5 7.5 25.7 9.5 18.6 7.2 35.4 9.9 47.6 7.6 13.4-2.5 25.3-11.4 31.9-24 5.3-10.1 9.6-22.1 9.6-26.6 0-12.1-18.8-32-35.3-37.4-8.8-2.9-23.8-5.9-33.2-6.6-16.5-1.2-19.2-1.2-27.5-.5"/></svg>