<?xml version="1.0" standalone="no"?>
<!DOCTYPE svg PUBLIC "-//W3C//DTD SVG 20010904//EN"
 "http://www.w3.org/TR/2001/REC-SVG-20010904/DTD/svg10.dtd">
<svg version="1.0" xmlns="http://www.w3.org/2000/svg"
 width="1480.000000pt" height="1480.000000pt" viewBox="0 0 1480.000000 1480.000000"
 preserveAspectRatio="xMidYMid meet">

<g transform="translate(0.000000,1480.000000) scale(0.100000,-0.100000)"
fill="#000000" stroke="none">
<path d="M460 14706 c0 -209 77 -433 193 -563 119 -133 147 -213 203 -571 49
-313 89 -426 185 -524 74 -74 144 -98 315 -105 444 -20 1168 213 1457 468 143
125 309 477 368 780 42 210 25 440 -41 568 l-20 41 -1330 0 -1330 0 0 -94z"/>
<path d="M8130 14758 c0 -94 23 -276 46 -367 77 -304 271 -496 559 -552 50
-10 157 -14 375 -14 257 0 317 3 380 18 268 63 511 299 581 564 22 84 30 258
16 346 l-8 47 -975 0 -974 0 0 -42z"/>
<path d="M12889 14768 c-8 -20 -14 -69 -14 -123 0 -81 3 -97 32 -158 54 -114
141 -211 263 -294 82 -55 147 -83 195 -83 144 0 504 114 987 312 276 113 308
144 308 297 l0 81 -879 0 -879 0 -13 -32z"/>
<path d="M4125 14717 c-101 -34 -231 -120 -292 -194 -85 -103 -127 -194 -197
-436 -34 -115 -69 -207 -132 -340 -157 -331 -209 -486 -220 -652 -11 -166 43
-319 180 -513 154 -218 422 -427 647 -503 84 -29 109 -33 234 -37 176 -5 302
15 619 98 372 98 445 111 721 120 380 14 409 23 1075 353 405 201 522 271 628
375 80 79 111 132 153 257 90 274 104 574 38 840 -32 129 -88 279 -119 317
-94 114 -354 167 -765 155 -306 -9 -610 -40 -1139 -117 -428 -62 -578 -38
-961 150 -99 49 -205 98 -235 110 -68 27 -180 35 -235 17z"/>
<path d="M11350 14393 c-215 -11 -425 -47 -554 -94 -244 -89 -441 -322 -533
-629 -31 -103 -43 -310 -23 -403 19 -95 74 -192 133 -237 77 -57 200 -113 365
-165 492 -155 627 -218 742 -341 91 -97 108 -144 145 -397 39 -268 62 -335
134 -400 89 -80 163 -67 483 86 287 138 436 233 559 357 67 67 95 104 122 161
84 177 74 320 -49 644 -84 222 -87 243 -79 565 6 233 5 285 -9 343 -42 181
-155 304 -347 380 -235 94 -711 151 -1089 130z"/>
<path d="M14358 14175 c-20 -7 -85 -47 -145 -87 -59 -41 -135 -85 -168 -98
-181 -71 -457 -232 -572 -335 -191 -169 -166 -552 50 -791 61 -67 147 -124
313 -207 257 -129 399 -220 478 -307 90 -99 123 -181 156 -380 25 -150 55
-220 110 -256 42 -28 124 -41 184 -30 l36 7 0 1214 0 1214 -57 21 c-132 49
-303 65 -385 35z"/>
<path d="M0 12899 l0 -1211 33 7 c66 14 184 57 237 88 88 49 194 162 235 249
88 184 83 411 -13 650 -17 40 -71 159 -121 264 -125 265 -141 315 -141 451 0
59 5 142 11 183 27 211 8 336 -63 414 -38 41 -148 116 -170 116 -4 0 -8 -545
-8 -1211z"/>
<path d="M8944 13380 c-416 -53 -742 -399 -873 -930 -54 -222 -76 -463 -61
-671 17 -227 59 -339 164 -445 110 -110 233 -151 429 -142 220 10 434 111 594
280 76 81 114 147 196 340 199 466 304 841 314 1124 9 235 -12 281 -157 347
-164 75 -436 118 -606 97z"/>
<path d="M1905 12760 c-148 -26 -301 -68 -359 -97 -166 -84 -346 -299 -486
-581 -121 -245 -179 -441 -187 -633 -7 -173 7 -223 87 -301 240 -234 918 -495
1441 -553 100 -11 174 -54 488 -283 195 -143 291 -194 373 -200 72 -5 114 17
212 115 262 261 358 632 266 1028 -86 367 -331 688 -689 901 -107 63 -163 114
-280 253 -102 121 -199 220 -247 253 -164 111 -368 143 -619 98z"/>
<path d="M10622 12349 c-115 -14 -203 -44 -269 -93 -111 -82 -238 -229 -385
-446 -163 -239 -218 -390 -218 -596 0 -247 96 -465 295 -673 129 -134 254
-208 440 -258 91 -24 117 -27 280 -27 134 0 203 4 270 17 413 82 706 253 815
474 28 56 35 83 38 149 10 194 -78 316 -344 477 -190 114 -243 195 -279 419
-30 189 -45 250 -76 314 -89 181 -308 275 -567 243z"/>
<path d="M7095 12211 c-234 -62 -470 -218 -555 -366 -17 -29 -51 -117 -76
-195 -75 -233 -115 -308 -238 -455 -152 -181 -321 -470 -374 -642 -87 -280
-33 -425 202 -538 105 -50 184 -69 351 -85 194 -18 207 -23 406 -141 217 -130
274 -152 384 -153 82 -1 95 2 143 28 187 104 487 604 559 931 19 90 20 236 1
296 -20 62 -177 337 -245 427 -30 41 -61 88 -68 105 -21 51 -34 168 -44 387
-5 114 -15 221 -22 240 -30 85 -94 146 -175 169 -58 16 -170 12 -249 -8z"/>
<path d="M13200 11769 c-120 -13 -278 -53 -363 -92 -127 -59 -311 -226 -386
-351 -73 -122 -119 -291 -107 -398 17 -167 158 -295 416 -376 93 -29 137 -38
480 -102 91 -17 226 -43 300 -59 300 -64 390 -75 615 -75 199 -1 213 0 270 23
41 17 78 42 116 80 76 77 94 129 94 281 0 112 -1 117 -35 180 -24 46 -68 98
-152 182 -142 142 -180 188 -296 360 -128 187 -169 231 -255 272 -159 75 -422
103 -697 75z"/>
<path d="M5220 11681 c-30 -10 -112 -43 -183 -74 -92 -42 -182 -71 -325 -108
-246 -63 -307 -91 -368 -167 -122 -153 -191 -381 -182 -598 4 -90 9 -119 31
-166 108 -237 333 -415 579 -459 127 -23 261 26 371 135 75 73 119 137 214
306 39 69 114 197 168 285 292 483 313 699 79 810 -116 55 -278 70 -384 36z"/>
<path d="M8740 10869 c-123 -18 -254 -87 -313 -165 -109 -143 -227 -482 -272
-779 -19 -128 -19 -321 0 -421 37 -196 149 -324 384 -438 51 -25 211 -84 355
-131 310 -102 450 -168 624 -292 67 -48 197 -142 289 -208 200 -144 314 -215
409 -255 281 -117 478 -20 640 315 118 243 212 634 244 1012 15 187 -5 261
-87 313 -77 49 -118 54 -498 56 -389 2 -428 7 -559 68 -110 50 -191 109 -291
210 -87 87 -95 99 -188 281 -53 105 -114 212 -135 239 -43 58 -125 116 -201
146 -99 38 -307 64 -401 49z"/>
<path d="M1220 10450 c-332 -27 -555 -121 -738 -315 -139 -146 -192 -246 -301
-571 -125 -373 -151 -510 -114 -595 63 -142 326 -277 618 -319 162 -23 253 -9
630 95 350 97 388 104 590 115 175 9 261 21 474 67 146 31 194 58 308 175 83
84 124 135 161 198 38 63 38 168 1 257 -96 228 -435 535 -810 732 -250 131
-522 185 -819 161z"/>
<path d="M12730 9939 c-234 -11 -406 -55 -658 -168 -264 -120 -489 -263 -587
-373 -84 -96 -124 -202 -169 -448 -52 -285 -57 -489 -15 -628 18 -59 29 -75
93 -137 88 -85 187 -143 327 -189 179 -60 310 -78 564 -79 217 0 319 7 607 43
127 16 156 23 210 52 85 44 258 217 423 423 71 88 176 208 234 266 103 104
109 108 251 177 160 78 229 133 301 245 63 97 84 174 83 302 0 134 -23 204
-91 276 -180 193 -743 278 -1573 238z"/>
<path d="M5942 9765 c-35 -8 -125 -39 -200 -70 -204 -84 -315 -123 -369 -130
-60 -8 -419 37 -520 66 -39 11 -120 40 -180 65 -137 58 -211 74 -348 74 -136
0 -220 -21 -360 -90 -132 -66 -268 -164 -381 -275 -156 -154 -208 -255 -209
-410 0 -81 3 -95 30 -144 117 -212 437 -266 1345 -226 445 19 776 16 970 -9
375 -50 565 -22 649 95 22 30 40 84 77 232 41 164 48 210 52 317 5 149 -10
223 -62 304 -57 90 -141 146 -271 184 -98 29 -150 33 -223 17z"/>
<path d="M7168 9092 c-137 -50 -214 -159 -289 -411 -21 -71 -21 -75 -5 -134
35 -124 151 -260 271 -316 168 -79 485 -105 626 -52 75 29 201 157 247 252 58
120 74 267 37 340 -28 53 -121 116 -235 159 -19 7 -96 41 -170 76 -74 34 -169
72 -210 83 -92 26 -206 27 -272 3z"/>
<path d="M14405 8519 c-101 -18 -248 -108 -329 -201 -81 -93 -134 -215 -211
-488 -15 -53 -71 -189 -125 -305 -127 -273 -145 -318 -181 -453 -32 -124 -39
-262 -18 -364 16 -81 102 -243 189 -359 116 -156 249 -274 430 -383 222 -135
382 -140 568 -19 l72 47 0 1206 0 1207 -87 41 c-141 66 -227 86 -308 71z"/>
<path d="M1650 8489 c-25 -6 -124 -47 -220 -91 -96 -44 -221 -96 -278 -114
-141 -46 -351 -84 -466 -84 -180 0 -381 52 -575 149 -55 28 -103 51 -106 51
-3 0 -5 -540 -5 -1200 0 -1141 1 -1200 17 -1191 10 6 76 62 148 126 240 214
364 297 563 375 204 79 356 164 815 457 159 101 343 215 410 253 67 37 148 83
179 101 124 70 223 185 260 303 25 78 20 213 -11 301 -69 194 -274 413 -486
520 -99 50 -166 62 -245 44z"/>
<path d="M3225 8312 c-80 -28 -139 -67 -199 -133 -99 -110 -212 -366 -203
-461 9 -102 117 -257 227 -328 65 -42 171 -75 302 -94 186 -28 333 -14 424 39
78 46 218 221 280 350 36 75 64 171 64 218 0 91 -60 171 -166 219 -275 127
-389 174 -459 193 -79 20 -207 19 -270 -3z"/>
<path d="M8890 8284 c-14 -2 -59 -9 -100 -15 -125 -19 -239 -63 -488 -188
-250 -127 -350 -187 -419 -254 -59 -57 -73 -91 -73 -179 0 -141 63 -315 175
-483 128 -193 205 -254 590 -468 244 -136 329 -193 454 -306 58 -53 133 -117
166 -142 104 -80 320 -218 366 -235 96 -34 367 -27 482 12 62 21 138 104 167
182 40 106 53 197 53 382 1 195 -15 326 -64 530 -85 358 -180 533 -418 770
-241 240 -457 360 -701 390 -83 10 -140 11 -190 4z"/>
<path d="M5320 8200 c-230 -22 -416 -66 -531 -126 -274 -144 -471 -496 -429
-767 29 -191 101 -260 480 -458 260 -136 361 -200 447 -284 111 -110 139 -192
109 -323 -82 -359 0 -683 221 -882 71 -63 214 -136 308 -155 146 -31 257 -14
446 65 531 223 797 455 816 712 4 62 0 97 -32 228 -135 571 -144 628 -155 975
-10 315 -20 396 -68 535 -50 143 -130 255 -232 320 -92 59 -265 105 -533 141
-173 23 -680 34 -847 19z"/>
<path d="M10885 7644 c-122 -15 -191 -42 -256 -101 -78 -70 -102 -160 -74
-277 23 -102 76 -193 174 -299 102 -112 151 -200 211 -377 62 -183 109 -277
173 -342 110 -111 214 -148 422 -148 424 0 1050 197 1352 424 76 57 191 186
243 272 28 47 35 69 38 125 4 59 0 76 -25 131 -61 129 -235 317 -335 363 -151
69 -343 94 -823 105 -203 5 -390 14 -415 19 -25 5 -106 23 -180 40 -232 51
-419 75 -505 65z"/>
<path d="M3045 6995 c-160 -29 -330 -88 -465 -163 -36 -19 -155 -89 -264 -155
-110 -66 -344 -194 -519 -284 -358 -182 -485 -262 -574 -356 -78 -84 -105
-140 -111 -232 -4 -62 -1 -81 20 -126 93 -201 507 -507 830 -613 174 -57 340
-59 613 -6 318 60 483 62 1080 10 304 -27 608 -36 705 -21 184 28 289 130 364
352 76 228 77 554 2 775 -51 150 -135 280 -234 359 -115 93 -530 283 -829 381
-275 90 -443 111 -618 79z"/>
<path d="M8050 6054 c-139 -37 -219 -129 -430 -489 -240 -412 -306 -485 -705
-790 -94 -71 -218 -177 -276 -235 -90 -89 -112 -118 -147 -190 -93 -189 -69
-379 80 -632 121 -204 232 -282 541 -379 89 -27 299 -95 467 -150 509 -168
712 -212 990 -213 174 -1 229 7 362 50 161 53 305 178 390 340 25 49 96 206
156 349 143 339 177 411 247 525 105 172 138 293 138 505 1 287 -68 443 -287
653 -307 293 -850 589 -1205 656 -103 20 -248 20 -321 0z"/>
<path d="M10710 5959 c-68 -27 -132 -128 -185 -289 -15 -47 -49 -139 -76 -205
-97 -243 -128 -419 -100 -557 27 -128 123 -253 240 -313 110 -55 234 -97 274
-92 96 13 227 115 308 239 83 129 124 328 124 603 0 173 -2 196 -23 254 -59
163 -221 312 -387 356 -67 17 -138 19 -175 4z"/>
<path d="M12645 5909 c-277 -37 -473 -180 -690 -504 -260 -390 -394 -805 -330
-1023 29 -95 135 -181 440 -357 312 -179 473 -304 585 -453 47 -64 145 -250
265 -506 124 -266 253 -440 372 -503 167 -89 365 -50 610 119 133 92 203 211
293 499 28 90 96 300 150 466 166 503 217 754 207 1028 -8 229 -63 396 -172
524 -104 121 -186 168 -585 336 -295 124 -432 189 -521 247 -160 104 -413 156
-624 127z"/>
<path d="M669 5212 c-221 -74 -318 -291 -344 -772 -21 -393 -36 -525 -77 -650
-35 -106 -113 -290 -183 -429 l-65 -131 0 -738 0 -739 78 -17 c206 -44 473
-59 622 -36 239 38 436 172 538 367 86 164 125 319 162 643 39 348 65 406 306
696 211 254 314 426 355 593 30 118 23 291 -14 406 -80 244 -278 437 -622 605
-156 76 -283 126 -455 177 -147 43 -226 49 -301 25z"/>
<path d="M4920 4885 c-153 -30 -283 -100 -382 -204 -66 -69 -97 -81 -208 -81
-97 0 -208 25 -460 104 -293 92 -372 114 -485 132 -114 18 -207 13 -270 -15
-217 -98 -486 -746 -462 -1117 9 -148 64 -227 202 -289 142 -65 269 -82 681
-94 343 -10 318 -4 684 -171 400 -183 513 -219 715 -227 202 -8 295 23 480
160 253 187 397 392 452 647 26 122 26 493 -1 595 -40 155 -125 281 -251 371
-80 57 -333 178 -403 193 -69 14 -209 13 -292 -4z"/>
<path d="M10760 4113 c-140 -25 -311 -71 -367 -99 -162 -82 -341 -298 -482
-580 -119 -238 -179 -444 -188 -640 -7 -149 7 -206 68 -279 54 -65 97 -157
149 -325 166 -532 199 -612 301 -724 114 -125 194 -145 564 -146 463 0 1011
44 1245 102 128 31 173 58 285 172 199 202 288 423 288 721 1 165 -17 268 -72
424 -109 311 -351 599 -638 762 -104 59 -171 119 -307 280 -183 214 -294 295
-457 334 -82 19 -276 18 -389 -2z"/>
<path d="M14756 3155 c-53 -95 -192 -301 -275 -408 -121 -156 -191 -332 -191
-483 0 -224 143 -384 433 -485 36 -13 68 -21 71 -18 4 3 5 334 4 735 l-3 729
-39 -70z"/>
<path d="M2490 3036 c-114 -32 -235 -111 -361 -236 -110 -109 -181 -210 -250
-354 -64 -135 -91 -243 -97 -386 -5 -136 11 -217 60 -293 39 -62 101 -107 258
-192 167 -90 260 -155 346 -240 126 -124 160 -224 150 -435 -5 -118 -4 -139
11 -169 28 -54 80 -88 168 -112 70 -19 116 -22 366 -26 388 -7 560 14 759 93
313 126 482 417 531 914 32 340 -41 603 -243 878 -63 85 -215 239 -281 284
-177 120 -546 227 -942 273 -156 18 -412 18 -475 1z"/>
<path d="M6070 2903 c-133 -6 -343 -34 -442 -59 -57 -14 -144 -45 -194 -69
-280 -135 -494 -505 -494 -856 0 -156 42 -279 121 -357 67 -67 229 -140 477
-217 407 -126 538 -189 658 -317 88 -93 105 -139 139 -375 28 -199 47 -277 80
-342 59 -116 149 -147 288 -100 89 30 376 177 482 247 182 121 298 256 345
402 32 100 32 231 -1 395 -22 112 -24 141 -23 450 0 182 2 395 4 475 7 230
-29 342 -149 460 -152 150 -437 229 -936 260 -163 9 -212 10 -355 3z"/>
<path d="M8515 2309 c-126 -12 -288 -45 -365 -76 -91 -36 -142 -74 -180 -132
-56 -88 -72 -145 -78 -267 -7 -169 5 -218 182 -729 97 -281 111 -402 81 -695
-8 -80 -17 -205 -21 -278 l-7 -132 977 0 976 0 -6 28 c-59 253 -89 344 -196
602 -77 185 -133 348 -153 450 -9 44 -19 188 -25 350 -12 308 -27 427 -69 536
-61 156 -145 249 -257 284 -195 60 -570 86 -859 59z"/>
<path d="M13492 2099 c-212 -27 -421 -130 -569 -278 -111 -112 -307 -438 -352
-585 -68 -222 -26 -328 200 -512 145 -118 187 -165 226 -250 22 -48 27 -73 26
-134 0 -85 -21 -150 -85 -268 l-40 -72 882 0 881 0 -7 37 c-4 21 -8 85 -8 143
0 97 3 114 42 225 59 171 75 269 75 460 0 276 -50 439 -172 562 -33 33 -122
108 -198 166 -76 59 -194 156 -261 217 -214 190 -321 258 -451 286 -72 15 -95
15 -189 3z"/>
<path d="M1272 1449 c-190 -24 -351 -119 -469 -277 -174 -231 -270 -549 -337
-1119 l-7 -53 1331 0 c1062 0 1330 3 1324 13 -28 49 -94 121 -135 147 -73 47
-124 59 -334 75 -287 21 -334 45 -408 205 -75 163 -87 203 -107 386 -15 130
-26 187 -44 226 -92 206 -333 365 -601 397 -100 12 -122 12 -213 0z"/>
<path d="M4988 1070 c-156 -25 -228 -55 -328 -135 -115 -92 -186 -204 -210
-332 -29 -146 27 -240 186 -314 58 -27 175 -60 259 -73 22 -4 153 -29 290 -56
368 -73 505 -85 620 -55 119 31 179 113 180 245 0 100 -21 138 -144 265 -54
55 -130 148 -170 208 -108 160 -141 190 -242 222 -72 23 -105 27 -234 30 -82
2 -176 0 -207 -5z"/>
<path d="M11330 970 c-153 -14 -232 -53 -352 -172 -103 -104 -172 -272 -153
-377 17 -98 88 -149 317 -231 90 -33 205 -75 257 -95 186 -72 354 -99 476 -76
134 25 253 114 319 240 53 101 96 221 96 266 0 121 -188 320 -353 374 -88 29
-238 59 -332 66 -165 12 -192 12 -275 5z"/>
</g>
</svg>
